<?xml version="1.0" encoding="UTF-8" standalone="no"?>
<!-- Created with Inkscape (http://www.inkscape.org/) -->

<svg
   xmlns:dc="http://purl.org/dc/elements/1.1/"
   xmlns:cc="http://creativecommons.org/ns#"
   xmlns:rdf="http://www.w3.org/1999/02/22-rdf-syntax-ns#"
   xmlns:svg="http://www.w3.org/2000/svg"
   xmlns="http://www.w3.org/2000/svg"
   xmlns:sodipodi="http://sodipodi.sourceforge.net/DTD/sodipodi-0.dtd"
   xmlns:inkscape="http://www.inkscape.org/namespaces/inkscape"
   width="300"
   height="200"
   viewBox="0 0 79.374998 52.916668"
   version="1.1"
   id="svg8"
   inkscape:version="0.92.5 (2060ec1f9f, 2020-04-08)"
   sodipodi:docname="condorcet.svg">
  <defs
     id="defs2" />
  <sodipodi:namedview
     id="base"
     pagecolor="#ffffff"
     bordercolor="#666666"
     borderopacity="1.0"
     inkscape:pageopacity="1"
     inkscape:pageshadow="2"
     inkscape:zoom="2.1425"
     inkscape:cx="123.5109"
     inkscape:cy="84.720885"
     inkscape:document-units="mm"
     inkscape:current-layer="layer1"
     showgrid="false"
     units="px"
     inkscape:window-width="1859"
     inkscape:window-height="1016"
     inkscape:window-x="61"
     inkscape:window-y="27"
     inkscape:window-maximized="1"
     inkscape:snap-global="false"
     showguides="false"
     inkscape:guide-bbox="true">
    <sodipodi:guide
       position="21.132069,15.805391"
       orientation="1,0"
       id="guide2188"
       inkscape:locked="false" />
    <sodipodi:guide
       position="59.641334,16.853262"
       orientation="1,0"
       id="guide2190"
       inkscape:locked="false" />
    <sodipodi:guide
       position="39.579443,28.959063"
       orientation="0,1"
       id="guide2207"
       inkscape:locked="false" />
    <sodipodi:guide
       position="42.605016,17.721218"
       orientation="0,1"
       id="guide2209"
       inkscape:locked="false" />
    <sodipodi:guide
       position="48.285685,11.484831"
       orientation="0,1"
       id="guide2221"
       inkscape:locked="false" />
    <sodipodi:guide
       position="40.752624,9.4471998"
       orientation="0,1"
       id="guide2223"
       inkscape:locked="false" />
  </sodipodi:namedview>
  <metadata
     id="metadata5">
    <rdf:RDF>
      <cc:Work
         rdf:about="">
        <dc:format>image/svg+xml</dc:format>
        <dc:type
           rdf:resource="http://purl.org/dc/dcmitype/StillImage" />
        <dc:title />
      </cc:Work>
    </rdf:RDF>
  </metadata>
  <g
     inkscape:label="Layer 1"
     inkscape:groupmode="layer"
     id="layer1"
     transform="translate(0,-244.08332)">
    <g
       aria-label="B"
       transform="matrix(0.16928773,0,0,0.16928773,2.3555882,246.70231)"
       style="font-style:normal;font-weight:normal;font-size:40px;line-height:1.25;font-family:sans-serif;letter-spacing:0px;word-spacing:0px;fill:#f57900;fill-opacity:1;stroke:#f57900"
       id="flowRoot10">
      <path
         d="m 28.664062,46.214844 v 10.683593 h 6.328125 q 3.183594,0 4.707032,-1.308593 1.542968,-1.328125 1.542968,-4.042969 0,-2.734375 -1.542968,-4.023438 -1.523438,-1.308593 -4.707032,-1.308593 z m 0,-11.992188 v 8.789063 h 5.839844 q 2.890625,0 4.296875,-1.074219 1.425781,-1.09375 1.425781,-3.320313 0,-2.207031 -1.425781,-3.300781 -1.40625,-1.09375 -4.296875,-1.09375 z M 24.71875,30.980469 h 10.078125 q 4.511719,0 6.953125,1.875 2.441406,1.875 2.441406,5.332031 0,2.675781 -1.25,4.257812 -1.25,1.582032 -3.671875,1.972657 2.910156,0.625 4.511719,2.617187 1.621094,1.972656 1.621094,4.941406 0,3.90625 -2.65625,6.035157 -2.65625,2.128906 -7.558594,2.128906 H 24.71875 Z"
         style=""
         id="path180" />
    </g>
    <g
       aria-label="A"
       transform="matrix(0.16928773,0,0,0.16928773,8.822234,242.31879)"
       style="font-style:normal;font-weight:normal;font-size:40px;line-height:1.25;font-family:sans-serif;letter-spacing:0px;word-spacing:0px;fill:#f57900;fill-opacity:1;stroke:#f57900"
       id="flowRoot24">
      <path
         d="m 34.464844,34.867187 -5.351563,14.511719 h 10.722656 z m -2.226563,-3.886718 h 4.472656 l 11.113282,29.160156 h -4.101563 l -2.65625,-7.480469 H 27.921875 l -2.65625,7.480469 h -4.160156 z"
         style=""
         id="path177" />
    </g>
    <g
       aria-label="C"
       transform="matrix(0.16928773,0,0,0.16928773,15.701073,246.37412)"
       style="font-style:normal;font-weight:normal;font-size:40px;line-height:1.25;font-family:sans-serif;letter-spacing:0px;word-spacing:0px;fill:#f57900;fill-opacity:1;stroke:#f57900"
       id="flowRoot32">
      <path
         d="m 46.554687,33.226562 v 4.160157 Q 44.5625,35.53125 42.296875,34.613281 q -2.246094,-0.917969 -4.785156,-0.917969 -5,0 -7.65625,3.066407 -2.65625,3.046875 -2.65625,8.828125 0,5.761718 2.65625,8.828125 2.65625,3.046875 7.65625,3.046875 2.539062,0 4.785156,-0.917969 2.265625,-0.917969 4.257812,-2.773438 v 4.121094 q -2.070312,1.40625 -4.394531,2.109375 -2.304687,0.703125 -4.882812,0.703125 -6.621094,0 -10.429688,-4.042969 -3.808594,-4.0625 -3.808594,-11.074218 0,-7.03125 3.808594,-11.074219 3.808594,-4.0625 10.429688,-4.0625 2.617187,0 4.921875,0.703125 2.324218,0.683594 4.355468,2.070312 z"
         style=""
         id="path174" />
    </g>
    <g
       aria-label="D"
       transform="matrix(0.16928773,0,0,0.16928773,21.576919,243.79731)"
       style="font-style:normal;font-weight:normal;font-size:40px;line-height:1.25;font-family:sans-serif;letter-spacing:0px;word-spacing:0px;fill:#f57900;fill-opacity:1;stroke:#f57900"
       id="flowRoot40">
      <path
         d="m 28.664062,34.222656 v 22.675781 h 4.765625 q 6.035157,0 8.828125,-2.734375 2.8125,-2.734375 2.8125,-8.632812 0,-5.859375 -2.8125,-8.574219 -2.792968,-2.734375 -8.828125,-2.734375 z M 24.71875,30.980469 h 8.105469 q 8.476562,0 12.441406,3.535156 3.964844,3.515625 3.964844,11.015625 0,7.539062 -3.984375,11.074219 -3.984375,3.535156 -12.421875,3.535156 H 24.71875 Z"
         style=""
         id="path171" />
    </g>
    <g
       aria-label="G"
       transform="matrix(0.16928773,0,0,0.16928773,8.3086564,256.26706)"
       style="font-style:normal;font-weight:normal;font-size:40px;line-height:1.25;font-family:sans-serif;letter-spacing:0px;word-spacing:0px;fill:#75507b;fill-opacity:1;stroke:#75507b"
       id="flowRoot48" />
    <g
       aria-label="E"
       transform="matrix(0.16928773,0,0,0.16928773,15.886076,254.47176)"
       style="font-style:normal;font-weight:normal;font-size:40px;line-height:1.25;font-family:sans-serif;letter-spacing:0px;word-spacing:0px;fill:#75507b;fill-opacity:1;stroke:#75507b"
       id="flowRoot56">
      <path
         d="m 24.71875,30.980469 h 18.4375 v 3.320312 H 28.664062 v 8.632813 h 13.886719 v 3.320312 H 28.664062 v 10.566406 h 14.84375 v 3.320313 H 24.71875 Z"
         style=""
         id="path183" />
    </g>
    <path
       style="fill:#2e3436;stroke:#2e3436;stroke-width:0.26458332px;stroke-linecap:butt;stroke-linejoin:miter;stroke-opacity:1"
       d="m 4.9773882,258.84001 26.0221338,0.0873"
       id="path66"
       inkscape:connector-curvature="0"
       sodipodi:nodetypes="cc" />
    <g
       aria-label="0.5"
       transform="matrix(0.06542692,0,0,0.06542692,24.378125,254.37663)"
       style="font-style:normal;font-weight:normal;font-size:40px;line-height:1.25;font-family:sans-serif;letter-spacing:0px;word-spacing:0px;fill:#2e3436;fill-opacity:1;stroke:none"
       id="flowRoot68">
      <path
         d="m 123.27734,54.371094 q -3.04687,0 -4.58984,3.007812 -1.52344,2.988281 -1.52344,9.003906 0,5.996094 1.52344,9.003907 1.54297,2.988281 4.58984,2.988281 3.06641,0 4.58985,-2.988281 1.54297,-3.007813 1.54297,-9.003907 0,-6.015625 -1.54297,-9.003906 -1.52344,-3.007812 -4.58985,-3.007812 z m 0,-3.125 q 4.90235,0 7.48047,3.886718 2.59766,3.867188 2.59766,11.25 0,7.363282 -2.59766,11.25 Q 128.17969,81.5 123.27734,81.5 q -4.90234,0 -7.5,-3.867188 -2.57812,-3.886718 -2.57812,-11.25 0,-7.382812 2.57812,-11.25 2.59766,-3.886718 7.5,-3.886718 z"
         id="path2305"
         inkscape:connector-curvature="0" />
      <path
         d="m 140.28906,75.972656 h 4.1211 v 4.960938 h -4.1211 z"
         id="path2307"
         inkscape:connector-curvature="0" />
      <path
         d="m 153.04297,51.773437 h 15.48828 v 3.320313 h -11.875 v 7.148437 q 0.85937,-0.292968 1.71875,-0.429687 0.85937,-0.15625 1.71875,-0.15625 4.88281,0 7.73437,2.675781 2.85157,2.675781 2.85157,7.246094 0,4.707031 -2.92969,7.324219 Q 164.82031,81.5 159.48828,81.5 q -1.83594,0 -3.75,-0.3125 -1.89453,-0.3125 -3.92578,-0.9375 v -3.964844 q 1.75781,0.957031 3.63281,1.425781 1.875,0.46875 3.96485,0.46875 3.3789,0 5.35156,-1.777343 1.97265,-1.777344 1.97265,-4.824219 0,-3.046875 -1.97265,-4.824219 -1.97266,-1.777344 -5.35156,-1.777344 -1.58204,0 -3.16407,0.351563 -1.5625,0.351562 -3.20312,1.09375 z"
         id="path2309"
         inkscape:connector-curvature="0" />
    </g>
    <g
       aria-label="P(x) = 2/3 P(y) = 1/3"
       transform="matrix(0.10209405,0,0,0.10209405,25.306753,246.77867)"
       style="font-style:normal;font-weight:normal;font-size:40px;line-height:1.25;font-family:sans-serif;letter-spacing:0px;word-spacing:0px;fill:#2e3436;fill-opacity:1;stroke:none"
       id="flowRoot189">
      <path
         d="m 159.68945,21.021484 v 10.957032 h 4.96094 q 2.75391,0 4.25781,-1.425782 1.50391,-1.425781 1.50391,-4.0625 0,-2.617187 -1.50391,-4.042968 -1.5039,-1.425782 -4.25781,-1.425782 z m -3.94531,-3.242187 h 8.90625 q 4.90234,0 7.40234,2.226562 2.51954,2.207032 2.51954,6.484375 0,4.316407 -2.51954,6.523438 -2.5,2.207031 -7.40234,2.207031 h -4.96094 v 11.71875 h -3.94531 z"
         style=""
         id="path2147" />
      <path
         d="m 188.3418,16.587891 q -2.61719,4.492187 -3.88672,8.886718 -1.26953,4.394532 -1.26953,8.90625 0,4.511719 1.26953,8.945313 1.28906,4.414062 3.88672,8.886719 h -3.125 q -2.92969,-4.589844 -4.39453,-9.023438 -1.44532,-4.433594 -1.44532,-8.808594 0,-4.355468 1.44532,-8.769531 1.44531,-4.414062 4.39453,-9.023437 z"
         style=""
         id="path2149" />
      <path
         d="m 213.49805,25.064453 -7.91016,10.644531 8.32031,11.230469 h -4.23828 l -6.36719,-8.59375 -6.36718,8.59375 h -4.23828 l 8.49609,-11.445312 -7.77344,-10.429688 h 4.23828 l 5.80078,7.792969 5.80079,-7.792969 z"
         style="fill:#f57900"
         id="path2151" />
      <path
         d="m 218.41992,16.587891 h 3.125 q 2.92969,4.609375 4.375,9.023437 1.46485,4.414063 1.46485,8.769531 0,4.375 -1.46485,8.808594 -1.44531,4.433594 -4.375,9.023438 h -3.125 q 2.59766,-4.472657 3.86719,-8.886719 1.28906,-4.433594 1.28906,-8.945313 0,-4.511718 -1.28906,-8.90625 -1.26953,-4.394531 -3.86719,-8.886718 z"
         style=""
         id="path2153" />
      <path
         d="m 247.77539,28.775391 h 25.03906 v 3.28125 h -25.03906 z m 0,7.96875 h 25.03906 v 3.320312 h -25.03906 z"
         style=""
         id="path2155" />
      <path
         d="m 297.44336,43.619141 h 13.76953 v 3.320312 h -18.51562 v -3.320312 q 2.24609,-2.324219 6.11328,-6.230469 3.88672,-3.925781 4.88281,-5.058594 1.89453,-2.128906 2.63672,-3.59375 0.76172,-1.484375 0.76172,-2.910156 0,-2.324219 -1.64063,-3.789063 -1.62109,-1.464843 -4.23828,-1.464843 -1.85547,0 -3.92578,0.644531 -2.05078,0.644531 -4.39453,1.953125 v -3.984375 q 2.38281,-0.957031 4.45312,-1.445313 2.07032,-0.488281 3.78907,-0.488281 4.53125,0 7.22656,2.265625 2.69531,2.265625 2.69531,6.054688 0,1.796875 -0.68359,3.417968 -0.66407,1.601563 -2.44141,3.789063 -0.48828,0.566406 -3.10547,3.28125 -2.61719,2.695312 -7.38281,7.558594 z"
         style=""
         id="path2157" />
      <path
         d="m 325.37305,17.779297 h 3.32031 l -10.15625,32.871094 h -3.32031 z"
         style=""
         id="path2159" />
      <path
         d="m 344.92383,31.216797 q 2.83203,0.605469 4.41406,2.519531 1.60156,1.914063 1.60156,4.726563 0,4.316406 -2.96875,6.679687 -2.96875,2.363281 -8.4375,2.363281 -1.83593,0 -3.78906,-0.371093 -1.93359,-0.351563 -4.00391,-1.074219 v -3.808594 q 1.64063,0.957031 3.59375,1.445313 1.95313,0.488281 4.08204,0.488281 3.71093,0 5.64453,-1.464844 1.95312,-1.464844 1.95312,-4.257812 0,-2.578125 -1.8164,-4.023438 -1.79688,-1.464844 -5.01954,-1.464844 h -3.39843 v -3.242187 h 3.55468 q 2.91016,0 4.45313,-1.152344 1.54297,-1.171875 1.54297,-3.359375 0,-2.246094 -1.60156,-3.4375 -1.58204,-1.210937 -4.55079,-1.210937 -1.62109,0 -3.47656,0.351562 -1.85547,0.351563 -4.08203,1.09375 v -3.515625 q 2.24609,-0.625 4.19922,-0.9375 1.97266,-0.3125 3.71094,-0.3125 4.49218,0 7.10937,2.050781 2.61719,2.03125 2.61719,5.507813 0,2.421875 -1.38672,4.101562 -1.38672,1.660157 -3.94531,2.304688 z"
         style=""
         id="path2161" />
      <path
         d="m 159.68945,71.021484 v 10.957032 h 4.96094 q 2.75391,0 4.25781,-1.425782 1.50391,-1.425781 1.50391,-4.0625 0,-2.617187 -1.50391,-4.042968 -1.5039,-1.425782 -4.25781,-1.425782 z m -3.94531,-3.242187 h 8.90625 q 4.90234,0 7.40234,2.226562 2.51954,2.207032 2.51954,6.484375 0,4.316407 -2.51954,6.523438 -2.5,2.207031 -7.40234,2.207031 h -4.96094 v 11.71875 h -3.94531 z"
         style=""
         id="path2163" />
      <path
         d="m 188.3418,66.587891 q -2.61719,4.492187 -3.88672,8.886718 -1.26953,4.394532 -1.26953,8.90625 0,4.511719 1.26953,8.945313 1.28906,4.414062 3.88672,8.886718 h -3.125 q -2.92969,-4.589843 -4.39453,-9.023437 -1.44532,-4.433594 -1.44532,-8.808594 0,-4.355468 1.44532,-8.769531 1.44531,-4.414062 4.39453,-9.023437 z"
         style=""
         id="path2165" />
      <path
         d="m 204.41602,98.970703 q -1.52344,3.906247 -2.96875,5.097657 -1.44532,1.19141 -3.86719,1.19141 h -2.8711 v -3.00782 h 2.10938 q 1.48437,0 2.30469,-0.70312 0.82031,-0.70313 1.8164,-3.320314 l 0.64453,-1.640625 -8.84765,-21.523438 h 3.80859 l 6.83594,17.109375 6.83594,-17.109375 h 3.80859 z"
         style="fill:#75507b"
         id="path2167" />
      <path
         d="m 218.41992,66.587891 h 3.125 q 2.92969,4.609375 4.375,9.023437 1.46485,4.414063 1.46485,8.769531 0,4.375 -1.46485,8.808594 -1.44531,4.433594 -4.375,9.023437 h -3.125 q 2.59766,-4.472656 3.86719,-8.886718 1.28906,-4.433594 1.28906,-8.945313 0,-4.511718 -1.28906,-8.90625 -1.26953,-4.394531 -3.86719,-8.886718 z"
         style=""
         id="path2169" />
      <path
         d="m 247.77539,78.775391 h 25.03906 v 3.28125 h -25.03906 z m 0,7.96875 h 25.03906 v 3.320312 h -25.03906 z"
         style=""
         id="path2171" />
      <path
         d="m 294.72852,93.619141 h 6.44531 V 71.373047 l -7.01172,1.40625 v -3.59375 l 6.97266,-1.40625 h 3.94531 v 25.839844 h 6.44531 v 3.320312 h -16.79687 z"
         style=""
         id="path2173" />
      <path
         d="m 325.37305,67.779297 h 3.32031 l -10.15625,32.871093 h -3.32031 z"
         style=""
         id="path2175" />
      <path
         d="m 344.92383,81.216797 q 2.83203,0.605469 4.41406,2.519531 1.60156,1.914063 1.60156,4.726563 0,4.316406 -2.96875,6.679687 -2.96875,2.363281 -8.4375,2.363281 -1.83593,0 -3.78906,-0.371093 -1.93359,-0.351563 -4.00391,-1.074219 v -3.808594 q 1.64063,0.957031 3.59375,1.445313 1.95313,0.488281 4.08204,0.488281 3.71093,0 5.64453,-1.464844 1.95312,-1.464844 1.95312,-4.257812 0,-2.578125 -1.8164,-4.023438 -1.79688,-1.464844 -5.01954,-1.464844 h -3.39843 v -3.242187 h 3.55468 q 2.91016,0 4.45313,-1.152344 1.54297,-1.171875 1.54297,-3.359375 0,-2.246094 -1.60156,-3.4375 -1.58204,-1.210937 -4.55079,-1.210937 -1.62109,0 -3.47656,0.351562 -1.85547,0.351563 -4.08203,1.09375 v -3.515625 q 2.24609,-0.625 4.19922,-0.9375 1.97266,-0.3125 3.71094,-0.3125 4.49218,0 7.10937,2.050781 2.61719,2.03125 2.61719,5.507813 0,2.421875 -1.38672,4.101562 -1.38672,1.660157 -3.94531,2.304688 z"
         style=""
         id="path2177" />
    </g>
    <g
       aria-label="A B C  A B D  A B E  A B F A C D  A C E  A C F  A D E A D F  B C D  B C E  B C F  B D E  B D F  C D E  C D F"
       transform="matrix(0.23014545,0,0,0.23014545,-7.5158675,251.05902)"
       style="font-style:normal;font-variant:normal;font-weight:normal;font-stretch:normal;font-size:10.66666698px;line-height:1.25;font-family:'Bitstream Vera Sans Mono';-inkscape-font-specification:'Bitstream Vera Sans Mono, Normal';font-variant-ligatures:normal;font-variant-caps:normal;font-variant-numeric:normal;font-feature-settings:normal;text-align:start;letter-spacing:0px;word-spacing:0px;writing-mode:lr-tb;text-anchor:start;fill:#f57900;fill-opacity:1;stroke:none"
       id="flowRoot201">
      <path
         d="m 128.29232,75.524089 -1.10938,3.979166 h 2.21875 z m -0.63542,-0.927084 h 1.27604 l 2.38021,7.776042 h -1.08854 l -0.57292,-2.026042 h -2.72396 l -0.5625,2.026042 h -1.08854 z"
         id="path1204"
         inkscape:connector-curvature="0" />
      <path
         d="m 139.84961,78.659505 v 2.848959 h 1.24479 q 0.91667,0 1.30729,-0.317709 0.39063,-0.322916 0.39063,-1.057291 0,-0.760417 -0.41146,-1.114584 -0.41146,-0.359375 -1.28646,-0.359375 z m 0,-3.197916 v 2.34375 h 1.22396 q 0.76041,0 1.09896,-0.291667 0.34375,-0.291667 0.34375,-0.942708 0,-0.588542 -0.33855,-0.848959 -0.33333,-0.260416 -1.10416,-0.260416 z m -1.05729,-0.864584 h 2.30208 q 1.19271,0 1.83854,0.515625 0.64584,0.515625 0.64584,1.458334 0,0.713541 -0.34375,1.125 -0.33855,0.411458 -1.02084,0.515625 0.76563,0.114583 1.19792,0.65625 0.4375,0.536458 0.4375,1.369791 0,1.057292 -0.69271,1.598959 -0.69271,0.536458 -2.0625,0.536458 h -2.30208 z"
         id="path1206"
         inkscape:connector-curvature="0" />
      <path
         d="m 156.36003,82.097005 q -0.40105,0.213542 -0.82292,0.317709 -0.42188,0.109375 -0.89583,0.109375 -1.4948,0 -2.32292,-1.057292 -0.82292,-1.057292 -0.82292,-2.973958 0,-1.90625 0.82813,-2.96875 0.83333,-1.067709 2.31771,-1.067709 0.47395,0 0.89583,0.109375 0.42187,0.104167 0.82292,0.317709 v 1.078125 q -0.38542,-0.317709 -0.82813,-0.484375 -0.44271,-0.166667 -0.89062,-0.166667 -1.02605,0 -1.53646,0.791667 -0.51042,0.791666 -0.51042,2.390625 0,1.59375 0.51042,2.385416 0.51041,0.791667 1.53646,0.791667 0.45833,0 0.89583,-0.166667 0.44271,-0.166666 0.82292,-0.484375 z"
         id="path1208"
         inkscape:connector-curvature="0" />
      <path
         d="m 173.24544,75.524089 -1.10937,3.979166 h 2.21875 z m -0.63541,-0.927084 h 1.27604 l 2.38021,7.776042 h -1.08855 l -0.57291,-2.026042 h -2.72396 l -0.5625,2.026042 h -1.08854 z"
         id="path1210"
         inkscape:connector-curvature="0" />
      <path
         d="m 184.80273,78.659505 v 2.848959 h 1.2448 q 0.91666,0 1.30729,-0.317709 0.39062,-0.322916 0.39062,-1.057291 0,-0.760417 -0.41146,-1.114584 -0.41145,-0.359375 -1.28645,-0.359375 z m 0,-3.197916 v 2.34375 h 1.22396 q 0.76042,0 1.09896,-0.291667 0.34375,-0.291667 0.34375,-0.942708 0,-0.588542 -0.33854,-0.848959 -0.33333,-0.260416 -1.10417,-0.260416 z m -1.05729,-0.864584 h 2.30209 q 1.1927,0 1.83854,0.515625 0.64583,0.515625 0.64583,1.458334 0,0.713541 -0.34375,1.125 -0.33854,0.411458 -1.02083,0.515625 0.76562,0.114583 1.19791,0.65625 0.4375,0.536458 0.4375,1.369791 0,1.057292 -0.6927,1.598959 -0.69271,0.536458 -2.0625,0.536458 h -2.30209 z"
         id="path1212"
         inkscape:connector-curvature="0" />
      <path
         d="m 197.99544,81.508464 q 1.32813,0 1.85417,-0.651042 0.52604,-0.65625 0.52604,-2.364583 0,-1.723959 -0.52604,-2.375 -0.52083,-0.65625 -1.85417,-0.65625 h -0.5 v 6.046875 z m 0.0208,-6.911459 q 1.78125,0 2.625,0.947917 0.84375,0.947917 0.84375,2.947917 0,1.989583 -0.84375,2.9375 -0.84375,0.942708 -2.625,0.942708 h -1.57813 v -7.776042 z"
         id="path1214"
         inkscape:connector-curvature="0" />
      <path
         d="m 218.19857,75.524089 -1.10938,3.979166 h 2.21875 z m -0.63542,-0.927084 h 1.27604 l 2.38021,7.776042 h -1.08854 l -0.57292,-2.026042 h -2.72396 l -0.5625,2.026042 h -1.08854 z"
         id="path1216"
         inkscape:connector-curvature="0" />
      <path
         d="m 229.75586,78.659505 v 2.848959 h 1.24479 q 0.91667,0 1.30729,-0.317709 0.39063,-0.322916 0.39063,-1.057291 0,-0.760417 -0.41146,-1.114584 -0.41146,-0.359375 -1.28646,-0.359375 z m 0,-3.197916 v 2.34375 h 1.22396 q 0.76041,0 1.09896,-0.291667 0.34375,-0.291667 0.34375,-0.942708 0,-0.588542 -0.33855,-0.848959 -0.33333,-0.260416 -1.10416,-0.260416 z m -1.05729,-0.864584 h 2.30208 q 1.19271,0 1.83854,0.515625 0.64584,0.515625 0.64584,1.458334 0,0.713541 -0.34375,1.125 -0.33855,0.411458 -1.02084,0.515625 0.76563,0.114583 1.19792,0.65625 0.4375,0.536458 0.4375,1.369791 0,1.057292 -0.69271,1.598959 -0.69271,0.536458 -2.0625,0.536458 h -2.30208 z"
         id="path1218"
         inkscape:connector-curvature="0" />
      <path
         d="m 241.70378,74.597005 h 4.61458 v 0.885417 h -3.5625 v 2.302083 h 3.40625 v 0.885417 h -3.40625 v 2.817708 h 3.66146 v 0.885417 h -4.71354 z"
         style="fill:#75507b"
         id="path1220"
         inkscape:connector-curvature="0" />
      <path
         d="m 263.15169,75.524089 -1.10937,3.979166 h 2.21875 z m -0.63541,-0.927084 h 1.27604 l 2.38021,7.776042 h -1.08855 l -0.57291,-2.026042 h -2.72396 l -0.5625,2.026042 h -1.08854 z"
         id="path1222"
         inkscape:connector-curvature="0" />
      <path
         d="m 274.70898,78.659505 v 2.848959 h 1.2448 q 0.91666,0 1.30729,-0.317709 0.39062,-0.322916 0.39062,-1.057291 0,-0.760417 -0.41146,-1.114584 -0.41145,-0.359375 -1.28645,-0.359375 z m 0,-3.197916 v 2.34375 h 1.22396 q 0.76042,0 1.09896,-0.291667 0.34375,-0.291667 0.34375,-0.942708 0,-0.588542 -0.33854,-0.848959 -0.33333,-0.260416 -1.10417,-0.260416 z m -1.05729,-0.864584 h 2.30209 q 1.1927,0 1.83854,0.515625 0.64583,0.515625 0.64583,1.458334 0,0.713541 -0.34375,1.125 -0.33854,0.411458 -1.02083,0.515625 0.76562,0.114583 1.19791,0.65625 0.4375,0.536458 0.4375,1.369791 0,1.057292 -0.6927,1.598959 -0.69271,0.536458 -2.0625,0.536458 h -2.30209 z"
         id="path1224"
         inkscape:connector-curvature="0" />
      <path
         d="m 286.8444,74.597005 h 4.57813 v 0.885417 h -3.52084 v 2.291667 h 3.19271 v 0.885416 h -3.19271 v 3.713542 h -1.05729 z"
         style="fill:#75507b"
         id="path1226"
         inkscape:connector-curvature="0" />
      <path
         d="m 128.29232,88.857424 -1.10938,3.979167 h 2.21875 z m -0.63542,-0.927083 h 1.27604 l 2.38021,7.776042 h -1.08854 l -0.57292,-2.026042 h -2.72396 l -0.5625,2.026042 h -1.08854 z"
         id="path1228"
         inkscape:connector-curvature="0" />
      <path
         d="m 143.51628,95.430341 q -0.40105,0.213542 -0.82292,0.317709 -0.42188,0.109375 -0.89583,0.109375 -1.4948,0 -2.32292,-1.057292 -0.82292,-1.057292 -0.82292,-2.973958 0,-1.90625 0.82813,-2.968751 0.83333,-1.067708 2.31771,-1.067708 0.47395,0 0.89583,0.109375 0.42187,0.104167 0.82292,0.317708 v 1.078126 q -0.38542,-0.317709 -0.82813,-0.484376 -0.44271,-0.166666 -0.89062,-0.166666 -1.02605,0 -1.53646,0.791667 -0.51042,0.791666 -0.51042,2.390625 0,1.59375 0.51042,2.385416 0.51041,0.791667 1.53646,0.791667 0.45833,0 0.89583,-0.166667 0.44271,-0.166666 0.82292,-0.484375 z"
         id="path1230"
         inkscape:connector-curvature="0" />
      <path
         d="m 153.04232,94.8418 q 1.32812,0 1.85416,-0.651042 0.52605,-0.65625 0.52605,-2.364583 0,-1.723959 -0.52605,-2.375 -0.52083,-0.656251 -1.85416,-0.656251 h -0.5 V 94.8418 Z m 0.0208,-6.911459 q 1.78125,0 2.625,0.947917 0.84375,0.947917 0.84375,2.947917 0,1.989583 -0.84375,2.9375 -0.84375,0.942708 -2.625,0.942708 H 151.485 v -7.776042 z"
         id="path1232"
         inkscape:connector-curvature="0" />
      <path
         d="m 173.24544,88.857424 -1.10937,3.979167 h 2.21875 z m -0.63541,-0.927083 h 1.27604 l 2.38021,7.776042 h -1.08855 l -0.57291,-2.026042 h -2.72396 l -0.5625,2.026042 h -1.08854 z"
         id="path1234"
         inkscape:connector-curvature="0" />
      <path
         d="m 188.4694,95.430341 q -0.40104,0.213542 -0.82292,0.317709 -0.42187,0.109375 -0.89583,0.109375 -1.49479,0 -2.32292,-1.057292 -0.82291,-1.057292 -0.82291,-2.973958 0,-1.90625 0.82812,-2.968751 0.83334,-1.067708 2.31771,-1.067708 0.47396,0 0.89583,0.109375 0.42188,0.104167 0.82292,0.317708 v 1.078126 q -0.38542,-0.317709 -0.82812,-0.484376 -0.44271,-0.166666 -0.89063,-0.166666 -1.02604,0 -1.53646,0.791667 -0.51041,0.791666 -0.51041,2.390625 0,1.59375 0.51041,2.385416 0.51042,0.791667 1.53646,0.791667 0.45833,0 0.89583,-0.166667 0.44271,-0.166666 0.82292,-0.484375 z"
         id="path1236"
         inkscape:connector-curvature="0" />
      <path
         d="m 196.75065,87.930341 h 4.61458 v 0.885417 h -3.5625 v 2.302083 h 3.40625 v 0.885417 h -3.40625 v 2.817708 h 3.66146 v 0.885417 h -4.71354 z"
         style="fill:#75507b"
         id="path1238"
         inkscape:connector-curvature="0" />
      <path
         d="m 218.19857,88.857424 -1.10938,3.979167 h 2.21875 z m -0.63542,-0.927083 h 1.27604 l 2.38021,7.776042 h -1.08854 l -0.57292,-2.026042 h -2.72396 l -0.5625,2.026042 h -1.08854 z"
         id="path1240"
         inkscape:connector-curvature="0" />
      <path
         d="m 233.42253,95.430341 q -0.40105,0.213542 -0.82292,0.317709 -0.42188,0.109375 -0.89583,0.109375 -1.4948,0 -2.32292,-1.057292 -0.82292,-1.057292 -0.82292,-2.973958 0,-1.90625 0.82813,-2.968751 0.83333,-1.067708 2.31771,-1.067708 0.47395,0 0.89583,0.109375 0.42187,0.104167 0.82292,0.317708 v 1.078126 q -0.38542,-0.317709 -0.82813,-0.484376 -0.44271,-0.166666 -0.89062,-0.166666 -1.02605,0 -1.53646,0.791667 -0.51042,0.791666 -0.51042,2.390625 0,1.59375 0.51042,2.385416 0.51041,0.791667 1.53646,0.791667 0.45833,0 0.89583,-0.166667 0.44271,-0.166666 0.82292,-0.484375 z"
         id="path1242"
         inkscape:connector-curvature="0" />
      <path
         d="m 241.89128,87.930341 h 4.57812 v 0.885417 h -3.52083 v 2.291667 h 3.19271 v 0.885416 h -3.19271 v 3.713542 h -1.05729 z"
         style="fill:#75507b"
         id="path1244"
         inkscape:connector-curvature="0" />
      <path
         d="m 263.15169,88.857424 -1.10937,3.979167 h 2.21875 z m -0.63541,-0.927083 h 1.27604 l 2.38021,7.776042 h -1.08855 l -0.57291,-2.026042 h -2.72396 l -0.5625,2.026042 h -1.08854 z"
         id="path1246"
         inkscape:connector-curvature="0" />
      <path
         d="m 275.05794,94.8418 q 1.32813,0 1.85417,-0.651042 0.52604,-0.65625 0.52604,-2.364583 0,-1.723959 -0.52604,-2.375 -0.52083,-0.656251 -1.85417,-0.656251 h -0.5 V 94.8418 Z m 0.0208,-6.911459 q 1.78125,0 2.625,0.947917 0.84375,0.947917 0.84375,2.947917 0,1.989583 -0.84375,2.9375 -0.84375,0.942708 -2.625,0.942708 h -1.57813 v -7.776042 z"
         id="path1248"
         inkscape:connector-curvature="0" />
      <path
         d="m 286.6569,87.930341 h 4.61458 v 0.885417 h -3.5625 v 2.302083 h 3.40625 v 0.885417 h -3.40625 v 2.817708 h 3.66146 v 0.885417 h -4.71354 z"
         style="fill:#75507b"
         id="path1250"
         inkscape:connector-curvature="0" />
      <path
         d="m 128.29232,102.19076 -1.10938,3.97917 h 2.21875 z m -0.63542,-0.92708 h 1.27604 l 2.38021,7.77604 h -1.08854 l -0.57292,-2.02604 h -2.72396 l -0.5625,2.02604 h -1.08854 z"
         id="path1252"
         inkscape:connector-curvature="0" />
      <path
         d="m 140.19857,108.17514 q 1.32812,0 1.85416,-0.65105 0.52605,-0.65625 0.52605,-2.36458 0,-1.72396 -0.52605,-2.375 -0.52083,-0.65625 -1.85416,-0.65625 h -0.5 v 6.04688 z m 0.0208,-6.91146 q 1.78125,0 2.625,0.94791 0.84375,0.94792 0.84375,2.94792 0,1.98958 -0.84375,2.9375 -0.84375,0.94271 -2.625,0.94271 h -1.57812 v -7.77604 z"
         id="path1254"
         inkscape:connector-curvature="0" />
      <path
         d="m 151.98503,101.26368 h 4.57812 v 0.88541 h -3.52083 v 2.29167 h 3.19271 v 0.88542 h -3.19271 v 3.71354 h -1.05729 z"
         style="fill:#75507b"
         id="path1256"
         inkscape:connector-curvature="0" />
      <path
         d="m 171.95898,105.32618 v 2.84896 h 1.2448 q 0.91666,0 1.30729,-0.31771 0.39062,-0.32292 0.39062,-1.05729 0,-0.76042 -0.41146,-1.11459 -0.41145,-0.35937 -1.28645,-0.35937 z m 0,-3.19792 v 2.34375 h 1.22396 q 0.76042,0 1.09896,-0.29167 0.34375,-0.29166 0.34375,-0.9427 0,-0.58855 -0.33854,-0.84896 -0.33333,-0.26042 -1.10417,-0.26042 z m -1.05729,-0.86458 h 2.30209 q 1.1927,0 1.83854,0.51562 0.64583,0.51563 0.64583,1.45834 0,0.71354 -0.34375,1.125 -0.33854,0.41145 -1.02083,0.51562 0.76562,0.11458 1.19791,0.65625 0.4375,0.53646 0.4375,1.36979 0,1.05729 -0.6927,1.59896 -0.69271,0.53646 -2.0625,0.53646 h -2.30209 z"
         id="path1258"
         inkscape:connector-curvature="0" />
      <path
         d="m 188.4694,108.76368 q -0.40104,0.21354 -0.82292,0.31771 -0.42187,0.10937 -0.89583,0.10937 -1.49479,0 -2.32292,-1.05729 -0.82291,-1.05729 -0.82291,-2.97396 0,-1.90625 0.82812,-2.96875 0.83334,-1.06771 2.31771,-1.06771 0.47396,0 0.89583,0.10938 0.42188,0.10416 0.82292,0.31771 v 1.07812 q -0.38542,-0.31771 -0.82812,-0.48437 -0.44271,-0.16667 -0.89063,-0.16667 -1.02604,0 -1.53646,0.79167 -0.51041,0.79166 -0.51041,2.39062 0,1.59375 0.51041,2.38542 0.51042,0.79166 1.53646,0.79166 0.45833,0 0.89583,-0.16666 0.44271,-0.16667 0.82292,-0.48438 z"
         id="path1260"
         inkscape:connector-curvature="0" />
      <path
         d="m 197.99544,108.17514 q 1.32813,0 1.85417,-0.65105 0.52604,-0.65625 0.52604,-2.36458 0,-1.72396 -0.52604,-2.375 -0.52083,-0.65625 -1.85417,-0.65625 h -0.5 v 6.04688 z m 0.0208,-6.91146 q 1.78125,0 2.625,0.94791 0.84375,0.94792 0.84375,2.94792 0,1.98958 -0.84375,2.9375 -0.84375,0.94271 -2.625,0.94271 h -1.57813 v -7.77604 z"
         id="path1262"
         inkscape:connector-curvature="0" />
      <path
         d="m 216.91211,105.32618 v 2.84896 h 1.24479 q 0.91667,0 1.30729,-0.31771 0.39063,-0.32292 0.39063,-1.05729 0,-0.76042 -0.41146,-1.11459 -0.41146,-0.35937 -1.28646,-0.35937 z m 0,-3.19792 v 2.34375 h 1.22396 q 0.76041,0 1.09896,-0.29167 0.34375,-0.29166 0.34375,-0.9427 0,-0.58855 -0.33855,-0.84896 -0.33333,-0.26042 -1.10416,-0.26042 z m -1.05729,-0.86458 h 2.30208 q 1.19271,0 1.83854,0.51562 0.64584,0.51563 0.64584,1.45834 0,0.71354 -0.34375,1.125 -0.33855,0.41145 -1.02084,0.51562 0.76563,0.11458 1.19792,0.65625 0.4375,0.53646 0.4375,1.36979 0,1.05729 -0.69271,1.59896 -0.69271,0.53646 -2.0625,0.53646 h -2.30208 z"
         id="path1264"
         inkscape:connector-curvature="0" />
      <path
         d="m 233.42253,108.76368 q -0.40105,0.21354 -0.82292,0.31771 -0.42188,0.10937 -0.89583,0.10937 -1.4948,0 -2.32292,-1.05729 -0.82292,-1.05729 -0.82292,-2.97396 0,-1.90625 0.82813,-2.96875 0.83333,-1.06771 2.31771,-1.06771 0.47395,0 0.89583,0.10938 0.42187,0.10416 0.82292,0.31771 v 1.07812 q -0.38542,-0.31771 -0.82813,-0.48437 -0.44271,-0.16667 -0.89062,-0.16667 -1.02605,0 -1.53646,0.79167 -0.51042,0.79166 -0.51042,2.39062 0,1.59375 0.51042,2.38542 0.51041,0.79166 1.53646,0.79166 0.45833,0 0.89583,-0.16666 0.44271,-0.16667 0.82292,-0.48438 z"
         id="path1266"
         inkscape:connector-curvature="0" />
      <path
         d="m 241.70378,101.26368 h 4.61458 v 0.88541 h -3.5625 v 2.30209 h 3.40625 v 0.88541 h -3.40625 v 2.81771 h 3.66146 v 0.88542 h -4.71354 z"
         style="fill:#75507b"
         id="path1268"
         inkscape:connector-curvature="0" />
      <path
         d="m 261.86523,105.32618 v 2.84896 h 1.2448 q 0.91666,0 1.30729,-0.31771 0.39062,-0.32292 0.39062,-1.05729 0,-0.76042 -0.41146,-1.11459 -0.41145,-0.35937 -1.28645,-0.35937 z m 0,-3.19792 v 2.34375 h 1.22396 q 0.76042,0 1.09896,-0.29167 0.34375,-0.29166 0.34375,-0.9427 0,-0.58855 -0.33854,-0.84896 -0.33333,-0.26042 -1.10417,-0.26042 z m -1.05729,-0.86458 h 2.30209 q 1.1927,0 1.83854,0.51562 0.64583,0.51563 0.64583,1.45834 0,0.71354 -0.34375,1.125 -0.33854,0.41145 -1.02083,0.51562 0.76562,0.11458 1.19791,0.65625 0.4375,0.53646 0.4375,1.36979 0,1.05729 -0.6927,1.59896 -0.69271,0.53646 -2.0625,0.53646 h -2.30209 z"
         id="path1270"
         inkscape:connector-curvature="0" />
      <path
         d="m 278.37565,108.76368 q -0.40104,0.21354 -0.82292,0.31771 -0.42187,0.10937 -0.89583,0.10937 -1.49479,0 -2.32292,-1.05729 -0.82291,-1.05729 -0.82291,-2.97396 0,-1.90625 0.82812,-2.96875 0.83334,-1.06771 2.31771,-1.06771 0.47396,0 0.89583,0.10938 0.42188,0.10416 0.82292,0.31771 v 1.07812 q -0.38542,-0.31771 -0.82812,-0.48437 -0.44271,-0.16667 -0.89063,-0.16667 -1.02604,0 -1.53646,0.79167 -0.51041,0.79166 -0.51041,2.39062 0,1.59375 0.51041,2.38542 0.51042,0.79166 1.53646,0.79166 0.45833,0 0.89583,-0.16666 0.44271,-0.16667 0.82292,-0.48438 z"
         id="path1272"
         inkscape:connector-curvature="0" />
      <path
         d="m 286.8444,101.26368 h 4.57813 v 0.88541 h -3.52084 v 2.29167 h 3.19271 v 0.88542 h -3.19271 v 3.71354 h -1.05729 z"
         style="fill:#75507b"
         id="path1274"
         inkscape:connector-curvature="0" />
      <path
         d="m 127.00586,118.65951 v 2.84896 h 1.24479 q 0.91667,0 1.30729,-0.31771 0.39063,-0.32291 0.39063,-1.05729 0,-0.76042 -0.41146,-1.11458 -0.41146,-0.35938 -1.28646,-0.35938 z m 0,-3.19791 v 2.34375 h 1.22396 q 0.76041,0 1.09896,-0.29167 0.34375,-0.29167 0.34375,-0.94271 0,-0.58854 -0.33855,-0.84896 -0.33333,-0.26041 -1.10416,-0.26041 z m -1.05729,-0.86459 h 2.30208 q 1.19271,0 1.83854,0.51563 0.64584,0.51562 0.64584,1.45833 0,0.71354 -0.34375,1.125 -0.33855,0.41146 -1.02084,0.51563 0.76563,0.11458 1.19792,0.65625 0.4375,0.53645 0.4375,1.36979 0,1.05729 -0.69271,1.59896 -0.69271,0.53645 -2.0625,0.53645 h -2.30208 z"
         id="path1276"
         inkscape:connector-curvature="0" />
      <path
         d="m 140.19857,121.50847 q 1.32812,0 1.85416,-0.65104 0.52605,-0.65625 0.52605,-2.36458 0,-1.72396 -0.52605,-2.375 -0.52083,-0.65625 -1.85416,-0.65625 h -0.5 v 6.04687 z m 0.0208,-6.91146 q 1.78125,0 2.625,0.94792 0.84375,0.94792 0.84375,2.94792 0,1.98958 -0.84375,2.9375 -0.84375,0.9427 -2.625,0.9427 h -1.57812 v -7.77604 z"
         id="path1278"
         inkscape:connector-curvature="0" />
      <path
         d="m 151.79753,114.59701 h 4.61458 v 0.88542 h -3.5625 v 2.30208 h 3.40625 v 0.88542 h -3.40625 v 2.81771 h 3.66146 v 0.88541 h -4.71354 z"
         style="fill:#75507b"
         id="path1280"
         inkscape:connector-curvature="0" />
      <path
         d="m 171.95898,118.65951 v 2.84896 h 1.2448 q 0.91666,0 1.30729,-0.31771 0.39062,-0.32291 0.39062,-1.05729 0,-0.76042 -0.41146,-1.11458 -0.41145,-0.35938 -1.28645,-0.35938 z m 0,-3.19791 v 2.34375 h 1.22396 q 0.76042,0 1.09896,-0.29167 0.34375,-0.29167 0.34375,-0.94271 0,-0.58854 -0.33854,-0.84896 -0.33333,-0.26041 -1.10417,-0.26041 z m -1.05729,-0.86459 h 2.30209 q 1.1927,0 1.83854,0.51563 0.64583,0.51562 0.64583,1.45833 0,0.71354 -0.34375,1.125 -0.33854,0.41146 -1.02083,0.51563 0.76562,0.11458 1.19791,0.65625 0.4375,0.53645 0.4375,1.36979 0,1.05729 -0.6927,1.59896 -0.69271,0.53645 -2.0625,0.53645 h -2.30209 z"
         id="path1282"
         inkscape:connector-curvature="0" />
      <path
         d="m 185.15169,121.50847 q 1.32813,0 1.85417,-0.65104 0.52604,-0.65625 0.52604,-2.36458 0,-1.72396 -0.52604,-2.375 -0.52083,-0.65625 -1.85417,-0.65625 h -0.5 v 6.04687 z m 0.0208,-6.91146 q 1.78125,0 2.625,0.94792 0.84375,0.94792 0.84375,2.94792 0,1.98958 -0.84375,2.9375 -0.84375,0.9427 -2.625,0.9427 h -1.57813 v -7.77604 z"
         id="path1284"
         inkscape:connector-curvature="0" />
      <path
         d="m 196.93815,114.59701 h 4.57813 v 0.88542 h -3.52084 v 2.29167 h 3.19271 v 0.88541 h -3.19271 v 3.71354 h -1.05729 z"
         style="fill:#75507b"
         id="path1286"
         inkscape:connector-curvature="0" />
      <path
         d="m 220.57878,122.09701 q -0.40105,0.21354 -0.82292,0.31771 -0.42188,0.10938 -0.89583,0.10938 -1.4948,0 -2.32292,-1.0573 -0.82292,-1.05729 -0.82292,-2.97395 0,-1.90625 0.82813,-2.96875 0.83333,-1.06771 2.31771,-1.06771 0.47395,0 0.89583,0.10937 0.42187,0.10417 0.82292,0.31771 v 1.07813 q -0.38542,-0.31771 -0.82813,-0.48438 -0.44271,-0.16667 -0.89062,-0.16667 -1.02605,0 -1.53646,0.79167 -0.51042,0.79167 -0.51042,2.39063 0,1.59375 0.51042,2.38541 0.51041,0.79167 1.53646,0.79167 0.45833,0 0.89583,-0.16667 0.44271,-0.16666 0.82292,-0.48437 z"
         id="path1288"
         inkscape:connector-curvature="0" />
      <path
         d="m 230.10482,121.50847 q 1.32812,0 1.85416,-0.65104 0.52605,-0.65625 0.52605,-2.36458 0,-1.72396 -0.52605,-2.375 -0.52083,-0.65625 -1.85416,-0.65625 h -0.5 v 6.04687 z m 0.0208,-6.91146 q 1.78125,0 2.625,0.94792 0.84375,0.94792 0.84375,2.94792 0,1.98958 -0.84375,2.9375 -0.84375,0.9427 -2.625,0.9427 h -1.57812 v -7.77604 z"
         id="path1290"
         inkscape:connector-curvature="0" />
      <path
         d="m 241.70378,114.59701 h 4.61458 v 0.88542 h -3.5625 v 2.30208 h 3.40625 v 0.88542 h -3.40625 v 2.81771 h 3.66146 v 0.88541 h -4.71354 z"
         style="fill:#75507b"
         id="path1292"
         inkscape:connector-curvature="0" />
      <path
         d="m 265.5319,122.09701 q -0.40104,0.21354 -0.82292,0.31771 -0.42187,0.10938 -0.89583,0.10938 -1.49479,0 -2.32292,-1.0573 -0.82291,-1.05729 -0.82291,-2.97395 0,-1.90625 0.82812,-2.96875 0.83334,-1.06771 2.31771,-1.06771 0.47396,0 0.89583,0.10937 0.42188,0.10417 0.82292,0.31771 v 1.07813 q -0.38542,-0.31771 -0.82812,-0.48438 -0.44271,-0.16667 -0.89063,-0.16667 -1.02604,0 -1.53646,0.79167 -0.51041,0.79167 -0.51041,2.39063 0,1.59375 0.51041,2.38541 0.51042,0.79167 1.53646,0.79167 0.45833,0 0.89583,-0.16667 0.44271,-0.16666 0.82292,-0.48437 z"
         id="path1294"
         inkscape:connector-curvature="0" />
      <path
         d="m 275.05794,121.50847 q 1.32813,0 1.85417,-0.65104 0.52604,-0.65625 0.52604,-2.36458 0,-1.72396 -0.52604,-2.375 -0.52083,-0.65625 -1.85417,-0.65625 h -0.5 v 6.04687 z m 0.0208,-6.91146 q 1.78125,0 2.625,0.94792 0.84375,0.94792 0.84375,2.94792 0,1.98958 -0.84375,2.9375 -0.84375,0.9427 -2.625,0.9427 h -1.57813 v -7.77604 z"
         id="path1296"
         inkscape:connector-curvature="0" />
      <path
         d="m 286.8444,114.59701 h 4.57813 v 0.88542 h -3.52084 v 2.29167 h 3.19271 v 0.88541 h -3.19271 v 3.71354 h -1.05729 z"
         style="fill:#75507b"
         id="path1298"
         inkscape:connector-curvature="0" />
    </g>
    <g
       aria-label="E F A  E F B  E F C  E F D"
       transform="matrix(0.23014545,0,0,0.23014545,-7.6677806,268.50887)"
       style="font-style:normal;font-variant:normal;font-weight:normal;font-stretch:normal;font-size:10.66666698px;line-height:1.25;font-family:'Bitstream Vera Sans Mono';-inkscape-font-specification:'Bitstream Vera Sans Mono, Normal';font-variant-ligatures:normal;font-variant-caps:normal;font-variant-numeric:normal;font-feature-settings:normal;text-align:start;letter-spacing:0px;word-spacing:0px;writing-mode:lr-tb;text-anchor:start;fill:#75507b;fill-opacity:1;stroke:none"
       id="flowRoot1313">
      <path
         d="m 126.11003,74.597005 h 4.61458 v 0.885417 h -3.5625 v 2.302083 h 3.40625 v 0.885417 h -3.40625 v 2.817708 h 3.66146 v 0.885417 h -4.71354 z"
         id="path2122"
         inkscape:connector-curvature="0" />
      <path
         d="m 139.14128,74.597005 h 4.57812 v 0.885417 h -3.52083 v 2.291667 h 3.19271 v 0.885416 h -3.19271 v 3.713542 h -1.05729 z"
         id="path2124"
         inkscape:connector-curvature="0" />
      <path
         d="m 153.97982,75.524089 -1.10938,3.979166 h 2.21875 z m -0.63542,-0.927084 h 1.27604 l 2.38021,7.776042 h -1.08854 l -0.57292,-2.026042 h -2.72396 l -0.5625,2.026042 h -1.08854 z"
         style="fill:#f57900"
         id="path2126"
         inkscape:connector-curvature="0" />
      <path
         d="m 171.06315,74.597005 h 4.61458 v 0.885417 h -3.5625 v 2.302083 h 3.40625 v 0.885417 h -3.40625 v 2.817708 h 3.66146 v 0.885417 h -4.71354 z"
         id="path2128"
         inkscape:connector-curvature="0" />
      <path
         d="m 184.0944,74.597005 h 4.57813 v 0.885417 h -3.52084 v 2.291667 h 3.19271 v 0.885416 h -3.19271 v 3.713542 h -1.05729 z"
         id="path2130"
         inkscape:connector-curvature="0" />
      <path
         d="m 197.64648,78.659505 v 2.848959 h 1.2448 q 0.91666,0 1.30729,-0.317709 0.39062,-0.322916 0.39062,-1.057291 0,-0.760417 -0.41146,-1.114584 -0.41145,-0.359375 -1.28645,-0.359375 z m 0,-3.197916 v 2.34375 h 1.22396 q 0.76042,0 1.09896,-0.291667 0.34375,-0.291667 0.34375,-0.942708 0,-0.588542 -0.33854,-0.848959 -0.33333,-0.260416 -1.10417,-0.260416 z m -1.05729,-0.864584 h 2.30209 q 1.1927,0 1.83854,0.515625 0.64583,0.515625 0.64583,1.458334 0,0.713541 -0.34375,1.125 -0.33854,0.411458 -1.02083,0.515625 0.76562,0.114583 1.19791,0.65625 0.4375,0.536458 0.4375,1.369791 0,1.057292 -0.6927,1.598959 -0.69271,0.536458 -2.0625,0.536458 h -2.30209 z"
         style="fill:#f57900"
         id="path2132"
         inkscape:connector-curvature="0" />
      <path
         d="m 216.01628,74.597005 h 4.61458 v 0.885417 h -3.5625 v 2.302083 h 3.40625 v 0.885417 h -3.40625 v 2.817708 h 3.66146 v 0.885417 h -4.71354 z"
         id="path2134"
         inkscape:connector-curvature="0" />
      <path
         d="m 229.04753,74.597005 h 4.57812 v 0.885417 h -3.52083 v 2.291667 h 3.19271 v 0.885416 h -3.19271 v 3.713542 h -1.05729 z"
         id="path2136"
         inkscape:connector-curvature="0" />
      <path
         d="m 246.26628,82.097005 q -0.40105,0.213542 -0.82292,0.317709 -0.42188,0.109375 -0.89583,0.109375 -1.4948,0 -2.32292,-1.057292 -0.82292,-1.057292 -0.82292,-2.973958 0,-1.90625 0.82813,-2.96875 0.83333,-1.067709 2.31771,-1.067709 0.47395,0 0.89583,0.109375 0.42187,0.104167 0.82292,0.317709 v 1.078125 q -0.38542,-0.317709 -0.82813,-0.484375 -0.44271,-0.166667 -0.89062,-0.166667 -1.02605,0 -1.53646,0.791667 -0.51042,0.791666 -0.51042,2.390625 0,1.59375 0.51042,2.385416 0.51041,0.791667 1.53646,0.791667 0.45833,0 0.89583,-0.166667 0.44271,-0.166666 0.82292,-0.484375 z"
         style="fill:#f57900"
         id="path2138"
         inkscape:connector-curvature="0" />
      <path
         d="m 260.9694,74.597005 h 4.61458 v 0.885417 h -3.5625 v 2.302083 h 3.40625 v 0.885417 h -3.40625 v 2.817708 h 3.66146 v 0.885417 h -4.71354 z"
         id="path2140"
         inkscape:connector-curvature="0" />
      <path
         d="m 274.00065,74.597005 h 4.57813 v 0.885417 h -3.52084 v 2.291667 h 3.19271 v 0.885416 h -3.19271 v 3.713542 h -1.05729 z"
         id="path2142"
         inkscape:connector-curvature="0" />
      <path
         d="m 287.90169,81.508464 q 1.32813,0 1.85417,-0.651042 0.52604,-0.65625 0.52604,-2.364583 0,-1.723959 -0.52604,-2.375 -0.52083,-0.65625 -1.85417,-0.65625 h -0.5 v 6.046875 z m 0.0208,-6.911459 q 1.78125,0 2.625,0.947917 0.84375,0.947917 0.84375,2.947917 0,1.989583 -0.84375,2.9375 -0.84375,0.942708 -2.625,0.942708 h -1.57813 v -7.776042 z"
         style="fill:#f57900"
         id="path2144"
         inkscape:connector-curvature="0" />
    </g>
    <g
       aria-label="Subsets of 3 elements"
       transform="matrix(0.26215335,0,0,0.26215335,-6.5491203,271.6682)"
       style="font-style:normal;font-weight:normal;font-size:13.33333302px;line-height:1.25;font-family:sans-serif;letter-spacing:0px;word-spacing:0px;fill:#2e3436;fill-opacity:1;stroke:none"
       id="flowRoot2180">
      <path
         d="m 111.75846,84.241536 v 1.282552 q -0.74869,-0.358072 -1.41276,-0.533854 -0.66406,-0.175781 -1.28255,-0.175781 -1.07422,0 -1.66016,0.416667 -0.57942,0.416666 -0.57942,1.184896 0,0.644531 0.38411,0.976562 0.39063,0.325521 1.47136,0.527344 l 0.79427,0.16276 q 1.47135,0.279948 2.16797,0.989583 0.70312,0.703125 0.70312,1.888021 0,1.412761 -0.95052,2.141927 -0.94401,0.729167 -2.77344,0.729167 -0.6901,0 -1.47135,-0.15625 -0.77474,-0.15625 -1.60807,-0.46224 v -1.354166 q 0.80078,0.449218 1.56901,0.677083 0.76823,0.227865 1.51041,0.227865 1.1263,0 1.73828,-0.442709 0.61198,-0.442708 0.61198,-1.263021 0,-0.716145 -0.44271,-1.119791 -0.43619,-0.403646 -1.4388,-0.605469 l -0.80078,-0.15625 q -1.47135,-0.292969 -2.1289,-0.917969 -0.65756,-0.625 -0.65756,-1.738281 0,-1.289062 0.90495,-2.03125 0.91146,-0.742187 2.50651,-0.742187 0.6836,0 1.39323,0.123698 0.70964,0.123698 1.45182,0.371093 z"
         style=""
         id="path2312" />
      <path
         d="m 114.2194,90.764974 v -4.414063 h 1.19792 v 4.36849 q 0,1.035156 0.40364,1.555989 0.40365,0.514323 1.21094,0.514323 0.97005,0 1.52995,-0.618489 0.5664,-0.61849 0.5664,-1.686198 v -4.134115 h 1.19792 v 7.291667 h -1.19792 v -1.119792 q -0.43619,0.664063 -1.01562,0.989584 -0.57292,0.31901 -1.33464,0.31901 -1.25651,0 -1.90755,-0.78125 -0.65104,-0.78125 -0.65104,-2.285156 z m 3.01432,-4.589844 z"
         style=""
         id="path2314" />
      <path
         d="m 128.02799,90.003255 q 0,-1.321615 -0.54687,-2.070312 -0.54036,-0.755209 -1.49089,-0.755209 -0.95052,0 -1.49739,0.755209 -0.54037,0.748697 -0.54037,2.070312 0,1.321615 0.54037,2.076823 0.54687,0.748698 1.49739,0.748698 0.95053,0 1.49089,-0.748698 0.54687,-0.755208 0.54687,-2.076823 z m -4.07552,-2.545573 q 0.37761,-0.651041 0.95052,-0.963541 0.57943,-0.319011 1.38021,-0.319011 1.32813,0 2.15495,1.054688 0.83333,1.054687 0.83333,2.773437 0,1.71875 -0.83333,2.773437 -0.82682,1.054688 -2.15495,1.054688 -0.80078,0 -1.38021,-0.3125 -0.57291,-0.31901 -0.95052,-0.970052 v 1.09375 h -1.20442 V 83.51237 h 1.20442 z"
         style=""
         id="path2316" />
      <path
         d="m 135.9056,86.565755 v 1.132813 q -0.50782,-0.260417 -1.05469,-0.390625 -0.54688,-0.130209 -1.13281,-0.130209 -0.89193,0 -1.34115,0.273438 -0.44271,0.273437 -0.44271,0.820312 0,0.416667 0.31901,0.657552 0.31901,0.234375 1.28255,0.449219 l 0.41016,0.09115 q 1.27604,0.273437 1.8099,0.774739 0.54036,0.494792 0.54036,1.386719 0,1.015625 -0.80729,1.608073 -0.80078,0.592448 -2.20703,0.592448 -0.58594,0 -1.22396,-0.117188 -0.63151,-0.110677 -1.33464,-0.338541 v -1.236979 q 0.66407,0.345052 1.3086,0.520833 0.64453,0.169271 1.27604,0.169271 0.84635,0 1.30208,-0.286459 0.45573,-0.292968 0.45573,-0.820312 0,-0.488281 -0.33203,-0.748698 -0.32552,-0.260417 -1.4388,-0.501302 l -0.41667,-0.09766 q -1.11328,-0.234375 -1.60807,-0.716146 -0.49479,-0.488281 -0.49479,-1.334635 0,-1.028646 0.72916,-1.588542 0.72917,-0.559896 2.07032,-0.559896 0.66406,0 1.25,0.09766 0.58593,0.09766 1.08073,0.292969 z"
         style=""
         id="path2318" />
      <path
         d="m 144.44076,89.697265 v 0.585938 h -5.50782 q 0.0781,1.236979 0.74219,1.888021 0.67057,0.644531 1.86198,0.644531 0.6901,0 1.33463,-0.169271 0.65105,-0.169271 1.28907,-0.507812 v 1.132812 q -0.64453,0.273438 -1.32162,0.416667 -0.67708,0.143229 -1.3737,0.143229 -1.74479,0 -2.76692,-1.015625 -1.01563,-1.015625 -1.01563,-2.747396 0,-1.790364 0.96354,-2.838541 0.97006,-1.054688 2.61068,-1.054688 1.47136,0 2.32422,0.950521 0.85938,0.94401 0.85938,2.571614 z m -1.19792,-0.351562 q -0.013,-0.983073 -0.55339,-1.56901 -0.53385,-0.585938 -1.41927,-0.585938 -1.0026,0 -1.60807,0.566406 -0.59896,0.566407 -0.6901,1.595052 z"
         style=""
         id="path2320" />
      <path
         d="m 147.5918,84.280599 v 2.070312 h 2.46744 v 0.93099 h -2.46744 v 3.958333 q 0,0.891927 0.24088,1.145833 0.2474,0.253907 0.9961,0.253907 h 1.23046 v 1.002604 h -1.23046 q -1.38672,0 -1.91407,-0.514323 -0.52734,-0.520833 -0.52734,-1.888021 v -3.958333 h -0.87891 v -0.93099 h 0.87891 v -2.070312 z"
         style=""
         id="path2322" />
      <path
         d="m 156.2832,86.565755 v 1.132813 q -0.50781,-0.260417 -1.05469,-0.390625 -0.54687,-0.130209 -1.13281,-0.130209 -0.89193,0 -1.34114,0.273438 -0.44271,0.273437 -0.44271,0.820312 0,0.416667 0.31901,0.657552 0.31901,0.234375 1.28255,0.449219 l 0.41016,0.09115 q 1.27604,0.273437 1.80989,0.774739 0.54037,0.494792 0.54037,1.386719 0,1.015625 -0.80729,1.608073 -0.80079,0.592448 -2.20704,0.592448 -0.58593,0 -1.22395,-0.117188 -0.63151,-0.110677 -1.33464,-0.338541 v -1.236979 q 0.66406,0.345052 1.30859,0.520833 0.64454,0.169271 1.27605,0.169271 0.84635,0 1.30208,-0.286459 0.45573,-0.292968 0.45573,-0.820312 0,-0.488281 -0.33203,-0.748698 -0.32552,-0.260417 -1.43881,-0.501302 l -0.41666,-0.09766 q -1.11328,-0.234375 -1.60807,-0.716146 -0.4948,-0.488281 -0.4948,-1.334635 0,-1.028646 0.72917,-1.588542 0.72917,-0.559896 2.07031,-0.559896 0.66407,0 1.25,0.09766 0.58594,0.09766 1.08073,0.292969 z"
         style=""
         id="path2324" />
      <path
         d="m 165.64518,87.190755 q -0.96354,0 -1.52344,0.755208 -0.55989,0.748698 -0.55989,2.057292 0,1.308594 0.55338,2.063802 0.5599,0.748698 1.52995,0.748698 0.95703,0 1.51693,-0.755208 0.55989,-0.755209 0.55989,-2.057292 0,-1.295573 -0.55989,-2.050781 -0.5599,-0.761719 -1.51693,-0.761719 z m 0,-1.015625 q 1.5625,0 2.45443,1.015625 0.89192,1.015625 0.89192,2.8125 0,1.790365 -0.89192,2.8125 -0.89193,1.015625 -2.45443,1.015625 -1.56901,0 -2.46094,-1.015625 -0.88541,-1.022135 -0.88541,-2.8125 0,-1.796875 0.88541,-2.8125 0.89193,-1.015625 2.46094,-1.015625 z"
         style=""
         id="path2326" />
      <path
         d="m 174.66862,83.51237 v 0.996093 h -1.14583 q -0.64453,0 -0.89844,0.260417 -0.2474,0.260417 -0.2474,0.9375 v 0.644531 h 1.97266 v 0.93099 h -1.97266 v 6.360677 h -1.20442 v -6.360677 h -1.14584 v -0.93099 h 1.14584 v -0.507812 q 0,-1.217448 0.5664,-1.770833 0.56641,-0.559896 1.79688,-0.559896 z"
         style=""
         id="path2328" />
      <path
         d="m 184.06315,88.401693 q 0.94401,0.201822 1.47135,0.839843 0.53386,0.638021 0.53386,1.575521 0,1.438802 -0.98959,2.226563 -0.98958,0.78776 -2.8125,0.78776 -0.61198,0 -1.26302,-0.123698 -0.64453,-0.117187 -1.33463,-0.358073 v -1.269531 q 0.54687,0.31901 1.19791,0.481771 0.65105,0.16276 1.36068,0.16276 1.23698,0 1.88151,-0.488281 0.65104,-0.488281 0.65104,-1.419271 0,-0.859375 -0.60547,-1.341146 -0.59895,-0.488281 -1.67317,-0.488281 h -1.13282 v -1.080729 h 1.1849 q 0.97005,0 1.48438,-0.384115 0.51432,-0.390625 0.51432,-1.119791 0,-0.748698 -0.53386,-1.145834 -0.52734,-0.403645 -1.51692,-0.403645 -0.54037,0 -1.15886,0.117187 -0.61849,0.117188 -1.36067,0.364583 v -1.171875 q 0.74869,-0.208333 1.39974,-0.3125 0.65755,-0.104166 1.23697,-0.104166 1.4974,0 2.3698,0.683593 0.87239,0.677084 0.87239,1.835938 0,0.807292 -0.46224,1.367187 -0.46224,0.553386 -1.3151,0.76823 z"
         style=""
         id="path2330" />
      <path
         d="m 198.86783,89.697265 v 0.585938 h -5.50781 q 0.0781,1.236979 0.74219,1.888021 0.67057,0.644531 1.86198,0.644531 0.6901,0 1.33463,-0.169271 0.65104,-0.169271 1.28907,-0.507812 v 1.132812 q -0.64454,0.273438 -1.32162,0.416667 -0.67708,0.143229 -1.3737,0.143229 -1.74479,0 -2.76692,-1.015625 -1.01563,-1.015625 -1.01563,-2.747396 0,-1.790364 0.96354,-2.838541 0.97005,-1.054688 2.61068,-1.054688 1.47135,0 2.32422,0.950521 0.85937,0.94401 0.85937,2.571614 z m -1.19791,-0.351562 q -0.013,-0.983073 -0.55339,-1.56901 -0.53385,-0.585938 -1.41927,-0.585938 -1.0026,0 -1.60807,0.566406 -0.59896,0.566407 -0.69011,1.595052 z"
         style=""
         id="path2332" />
      <path
         d="m 200.83398,83.51237 h 1.19792 v 10.130208 h -1.19792 z"
         style=""
         id="path2334" />
      <path
         d="m 210.77539,89.697265 v 0.585938 h -5.50781 q 0.0781,1.236979 0.74218,1.888021 0.67058,0.644531 1.86198,0.644531 0.69011,0 1.33464,-0.169271 0.65104,-0.169271 1.28906,-0.507812 v 1.132812 q -0.64453,0.273438 -1.32161,0.416667 -0.67709,0.143229 -1.3737,0.143229 -1.74479,0 -2.76693,-1.015625 -1.01562,-1.015625 -1.01562,-2.747396 0,-1.790364 0.96354,-2.838541 0.97005,-1.054688 2.61067,-1.054688 1.47136,0 2.32422,0.950521 0.85938,0.94401 0.85938,2.571614 z m -1.19792,-0.351562 q -0.013,-0.983073 -0.55338,-1.56901 -0.53386,-0.585938 -1.41927,-0.585938 -1.00261,0 -1.60808,0.566406 -0.59896,0.566407 -0.6901,1.595052 z"
         style=""
         id="path2336" />
      <path
         d="m 218.41862,87.750651 q 0.44922,-0.807292 1.07422,-1.191406 0.625,-0.384115 1.47135,-0.384115 1.13932,0 1.75781,0.800781 0.61849,0.794271 0.61849,2.265625 v 4.401042 h -1.20443 v -4.361979 q 0,-1.048177 -0.37109,-1.55599 -0.37109,-0.507812 -1.13281,-0.507812 -0.93099,0 -1.47136,0.618489 -0.54036,0.61849 -0.54036,1.686198 v 4.121094 h -1.20443 v -4.361979 q 0,-1.054688 -0.37109,-1.55599 -0.37109,-0.507812 -1.14583,-0.507812 -0.91797,0 -1.45834,0.625 -0.54036,0.618489 -0.54036,1.679687 v 4.121094 h -1.20443 v -7.291667 h 1.20443 v 1.132813 q 0.41015,-0.670573 0.98307,-0.989583 0.57292,-0.319011 1.36068,-0.319011 0.79427,0 1.34765,0.403646 0.5599,0.403646 0.82683,1.171875 z"
         style=""
         id="path2338" />
      <path
         d="m 231.96679,89.697265 v 0.585938 h -5.50781 q 0.0781,1.236979 0.74219,1.888021 0.67057,0.644531 1.86198,0.644531 0.6901,0 1.33463,-0.169271 0.65105,-0.169271 1.28907,-0.507812 v 1.132812 q -0.64453,0.273438 -1.32162,0.416667 -0.67708,0.143229 -1.3737,0.143229 -1.74479,0 -2.76692,-1.015625 -1.01563,-1.015625 -1.01563,-2.747396 0,-1.790364 0.96354,-2.838541 0.97006,-1.054688 2.61068,-1.054688 1.47135,0 2.32422,0.950521 0.85937,0.94401 0.85937,2.571614 z m -1.19791,-0.351562 q -0.013,-0.983073 -0.55339,-1.56901 -0.53385,-0.585938 -1.41927,-0.585938 -1.0026,0 -1.60807,0.566406 -0.59896,0.566407 -0.69011,1.595052 z"
         style=""
         id="path2340" />
      <path
         d="m 239.99413,89.241536 v 4.401042 h -1.19792 v -4.361979 q 0,-1.035156 -0.40364,-1.549479 -0.40365,-0.514323 -1.21094,-0.514323 -0.97005,0 -1.52995,0.618489 -0.55989,0.61849 -0.55989,1.686198 v 4.121094 h -1.20443 v -7.291667 h 1.20443 v 1.132813 q 0.42968,-0.657552 1.00911,-0.983073 0.58594,-0.325521 1.34766,-0.325521 1.25651,0 1.90104,0.78125 0.64453,0.77474 0.64453,2.285156 z"
         style=""
         id="path2342" />
      <path
         d="m 243.56836,84.280599 v 2.070312 h 2.46745 v 0.93099 h -2.46745 v 3.958333 q 0,0.891927 0.24088,1.145833 0.2474,0.253907 0.9961,0.253907 h 1.23047 v 1.002604 h -1.23047 q -1.38672,0 -1.91406,-0.514323 -0.52735,-0.520833 -0.52735,-1.888021 v -3.958333 h -0.8789 v -0.93099 h 0.8789 v -2.070312 z"
         style=""
         id="path2344" />
      <path
         d="m 252.25976,86.565755 v 1.132813 q -0.50781,-0.260417 -1.05469,-0.390625 -0.54687,-0.130209 -1.13281,-0.130209 -0.89193,0 -1.34115,0.273438 -0.4427,0.273437 -0.4427,0.820312 0,0.416667 0.31901,0.657552 0.31901,0.234375 1.28255,0.449219 l 0.41016,0.09115 q 1.27604,0.273437 1.80989,0.774739 0.54037,0.494792 0.54037,1.386719 0,1.015625 -0.8073,1.608073 -0.80078,0.592448 -2.20703,0.592448 -0.58593,0 -1.22396,-0.117188 -0.63151,-0.110677 -1.33463,-0.338541 v -1.236979 q 0.66406,0.345052 1.30859,0.520833 0.64453,0.169271 1.27604,0.169271 0.84636,0 1.30209,-0.286459 0.45573,-0.292968 0.45573,-0.820312 0,-0.488281 -0.33203,-0.748698 -0.32553,-0.260417 -1.43881,-0.501302 l -0.41666,-0.09766 q -1.11328,-0.234375 -1.60808,-0.716146 -0.49479,-0.488281 -0.49479,-1.334635 0,-1.028646 0.72917,-1.588542 0.72917,-0.559896 2.07031,-0.559896 0.66406,0 1.25,0.09766 0.58594,0.09766 1.08073,0.292969 z"
         style=""
         id="path2346" />
    </g>
    <g
       aria-label="{"
       transform="matrix(0,-0.16756633,1.2230444,0,-104.41138,288.13686)"
       style="font-style:normal;font-weight:normal;font-size:40px;line-height:1.25;font-family:sans-serif;letter-spacing:0px;word-spacing:0px;fill:#2e3436;fill-opacity:1;stroke:none"
       id="flowRoot2192">
      <path
         d="m -9.1894531,134.08398 v 2.8125 h -1.2109379 q -4.863281,0 -6.523437,-1.44531 -1.640625,-1.44531 -1.640625,-5.76172 v -4.66797 q 0,-2.94921 -1.054688,-4.08203 -1.054687,-1.13281 -3.828125,-1.13281 h -1.191406 v -2.79297 h 1.191406 q 2.792969,0 3.828125,-1.11328 1.054688,-1.13281 1.054688,-4.04297 v -4.6875 q 0,-4.3164 1.640625,-5.74219 1.660156,-1.445308 6.523437,-1.445308 h 1.2109379 v 2.792968 h -1.3281249 q -2.753906,0 -3.59375,0.85938 -0.839844,0.85937 -0.839844,3.61328 v 4.84375 q 0,3.0664 -0.898437,4.45312 -0.878907,1.38672 -3.027344,1.875 2.167969,0.52735 3.046875,1.91406 0.878906,1.38672 0.878906,4.4336 v 4.84375 q 0,2.7539 0.839844,3.61328 0.839844,0.85937 3.59375,0.85937 z"
         id="path2200"
         inkscape:connector-curvature="0" />
    </g>
    <g
       id="g2205"
       style="font-style:normal;font-weight:normal;font-size:40px;line-height:1.25;font-family:sans-serif;letter-spacing:0px;word-spacing:0px;fill:#2e3436;fill-opacity:1;stroke:none"
       transform="matrix(-0.16756633,0,0,-0.35323677,59.698407,315.53716)"
       aria-label="{">
      <path
         inkscape:connector-curvature="0"
         id="path2203"
         d="m -9.1894531,134.08398 v 2.8125 h -1.2109379 q -4.863281,0 -6.523437,-1.44531 -1.640625,-1.44531 -1.640625,-5.76172 v -4.66797 q 0,-2.94921 -1.054688,-4.08203 -1.054687,-1.13281 -3.828125,-1.13281 h -1.191406 v -2.79297 h 1.191406 q 2.792969,0 3.828125,-1.11328 1.054688,-1.13281 1.054688,-4.04297 v -4.6875 q 0,-4.3164 1.640625,-5.74219 1.660156,-1.445308 6.523437,-1.445308 h 1.2109379 v 2.792968 h -1.3281249 q -2.753906,0 -3.59375,0.85938 -0.839844,0.85937 -0.839844,3.61328 v 4.84375 q 0,3.0664 -0.898437,4.45312 -0.878907,1.38672 -3.027344,1.875 2.167969,0.52735 3.046875,1.91406 0.878906,1.38672 0.878906,4.4336 v 4.84375 q 0,2.7539 0.839844,3.61328 0.839844,0.85937 3.59375,0.85937 z" />
    </g>
    <g
       aria-label="x wins"
       transform="matrix(0.26215335,0,0,0.26215335,37.890384,249.82787)"
       style="font-style:normal;font-variant:normal;font-weight:normal;font-stretch:normal;font-size:13.33339024px;line-height:1.25;font-family:sans-serif;-inkscape-font-specification:'sans-serif, Normal';font-variant-ligatures:normal;font-variant-caps:normal;font-variant-numeric:normal;font-feature-settings:normal;text-align:start;letter-spacing:0px;word-spacing:0px;writing-mode:lr-tb;text-anchor:start;fill:#2e3436;fill-opacity:1;stroke:none"
       id="flowRoot2217">
      <path
         d="m 111.94079,86.350931 -2.63673,3.548192 2.77345,3.743505 h -1.41277 l -2.12241,-2.864595 -2.1224,2.864595 h -1.41277 l 2.83205,-3.81512 -2.59116,-3.476577 h 1.41277 l 1.9336,2.597667 1.9336,-2.597667 z"
         style="fill:#f57900;stroke:#f57900"
         id="path2284" />
      <path
         d="m 117.3119,86.350931 h 1.19792 l 1.49741,5.690128 1.49089,-5.690128 h 1.41277 l 1.4974,5.690128 1.49089,-5.690128 h 1.19792 l -1.90756,7.291697 h -1.41277 l -1.56901,-5.976588 -1.57553,5.976588 h -1.41277 z"
         style=""
         id="path2286" />
      <path
         d="m 128.91352,86.350931 h 1.19792 v 7.291697 h -1.19792 z m 0,-2.838554 h 1.19792 v 1.516933 h -1.19792 z"
         style=""
         id="path2288" />
      <path
         d="m 138.67918,89.241568 v 4.40106 h -1.19792 v -4.361997 q 0,-1.035161 -0.40365,-1.549486 -0.40364,-0.514325 -1.21094,-0.514325 -0.97006,0 -1.52995,0.618492 -0.5599,0.618492 -0.5599,1.686205 v 4.121111 h -1.20443 v -7.291697 h 1.20443 v 1.132817 q 0.42969,-0.657555 1.00912,-0.983077 0.58594,-0.325522 1.34766,-0.325522 1.25651,0 1.90105,0.781253 0.64453,0.774743 0.64453,2.285166 z"
         style=""
         id="path2290" />
      <path
         d="m 145.71697,86.565775 v 1.132818 q -0.50781,-0.260418 -1.05469,-0.390627 -0.54688,-0.130209 -1.13282,-0.130209 -0.89193,0 -1.34115,0.273439 -0.44271,0.273438 -0.44271,0.820316 0,0.416668 0.31901,0.657555 0.31902,0.234376 1.28256,0.44922 l 0.41016,0.09115 q 1.27605,0.273438 1.8099,0.774742 0.54037,0.494794 0.54037,1.386725 0,1.015629 -0.8073,1.60808 -0.80078,0.59245 -2.20704,0.59245 -0.58594,0 -1.22396,-0.117188 -0.63151,-0.110677 -1.33464,-0.338543 v -1.236984 q 0.66406,0.345053 1.3086,0.520835 0.64453,0.169272 1.27605,0.169272 0.84635,0 1.30208,-0.28646 0.45574,-0.29297 0.45574,-0.820316 0,-0.488283 -0.33204,-0.748701 -0.32552,-0.260418 -1.4388,-0.501304 l -0.41667,-0.09766 q -1.11329,-0.234376 -1.60808,-0.716149 -0.4948,-0.488283 -0.4948,-1.334641 0,-1.02865 0.72917,-1.588548 0.72917,-0.559898 2.07032,-0.559898 0.66407,0 1.25001,0.09766 0.58594,0.09766 1.08073,0.29297 z"
         style=""
         id="path2292" />
    </g>
    <g
       aria-label="{"
       transform="matrix(-0.16756633,0,0,-0.08560365,59.698407,297.06002)"
       style="font-style:normal;font-weight:normal;font-size:40px;line-height:1.25;font-family:sans-serif;letter-spacing:0px;word-spacing:0px;fill:#2e3436;fill-opacity:1;stroke:none"
       id="g2227">
      <path
         d="m -9.1894531,134.08398 v 2.8125 h -1.2109379 q -4.863281,0 -6.523437,-1.44531 -1.640625,-1.44531 -1.640625,-5.76172 v -4.66797 q 0,-2.94921 -1.054688,-4.08203 -1.054687,-1.13281 -3.828125,-1.13281 h -1.191406 v -2.79297 h 1.191406 q 2.792969,0 3.828125,-1.11328 1.054688,-1.13281 1.054688,-4.04297 v -4.6875 q 0,-4.3164 1.640625,-5.74219 1.660156,-1.445308 6.523437,-1.445308 h 1.2109379 v 2.792968 h -1.3281249 q -2.753906,0 -3.59375,0.85938 -0.839844,0.85937 -0.839844,3.61328 v 4.84375 q 0,3.0664 -0.898437,4.45312 -0.878907,1.38672 -3.027344,1.875 2.167969,0.52735 3.046875,1.91406 0.878906,1.38672 0.878906,4.4336 v 4.84375 q 0,2.7539 0.839844,3.61328 0.839844,0.85937 3.59375,0.85937 z"
         id="path2225"
         inkscape:connector-curvature="0" />
    </g>
    <g
       aria-label="y wins"
       transform="matrix(0.26215335,0,0,0.26215335,37.766891,263.04905)"
       style="font-style:normal;font-variant:normal;font-weight:normal;font-stretch:normal;font-size:13.33339024px;line-height:1.25;font-family:sans-serif;-inkscape-font-specification:'sans-serif, Normal';font-variant-ligatures:normal;font-variant-caps:normal;font-variant-numeric:normal;font-feature-settings:normal;text-align:start;letter-spacing:0px;word-spacing:0px;writing-mode:lr-tb;text-anchor:start;fill:#2e3436;fill-opacity:1;stroke:none"
       id="flowRoot2235">
      <path
         d="m 108.91343,94.319715 q -0.50781,1.302089 -0.98959,1.699226 -0.48177,0.397137 -1.28907,0.397137 h -0.95703 v -1.002609 h 0.70313 q 0.49479,0 0.76823,-0.234376 0.27344,-0.234376 0.60547,-1.106775 l 0.21485,-0.546878 -2.94924,-7.174509 h 1.26954 l 2.27866,5.703149 2.27865,-5.703149 h 1.26954 z"
         style="fill:#75507b;stroke:#75507b"
         id="path2273" />
      <path
         d="m 117.3119,86.350931 h 1.19792 l 1.49741,5.690128 1.49089,-5.690128 h 1.41277 l 1.4974,5.690128 1.49089,-5.690128 h 1.19792 l -1.90756,7.291697 h -1.41277 l -1.56901,-5.976588 -1.57553,5.976588 h -1.41277 z"
         style=""
         id="path2275" />
      <path
         d="m 128.91352,86.350931 h 1.19792 v 7.291697 h -1.19792 z m 0,-2.838554 h 1.19792 v 1.516933 h -1.19792 z"
         style=""
         id="path2277" />
      <path
         d="m 138.67918,89.241568 v 4.40106 h -1.19792 v -4.361997 q 0,-1.035161 -0.40365,-1.549486 -0.40364,-0.514325 -1.21094,-0.514325 -0.97006,0 -1.52995,0.618492 -0.5599,0.618492 -0.5599,1.686205 v 4.121111 h -1.20443 v -7.291697 h 1.20443 v 1.132817 q 0.42969,-0.657555 1.00912,-0.983077 0.58594,-0.325522 1.34766,-0.325522 1.25651,0 1.90105,0.781253 0.64453,0.774743 0.64453,2.285166 z"
         style=""
         id="path2279" />
      <path
         d="m 145.71697,86.565775 v 1.132818 q -0.50781,-0.260418 -1.05469,-0.390627 -0.54688,-0.130209 -1.13282,-0.130209 -0.89193,0 -1.34115,0.273439 -0.44271,0.273438 -0.44271,0.820316 0,0.416668 0.31901,0.657555 0.31902,0.234376 1.28256,0.44922 l 0.41016,0.09115 q 1.27605,0.273438 1.8099,0.774742 0.54037,0.494794 0.54037,1.386725 0,1.015629 -0.8073,1.60808 -0.80078,0.59245 -2.20704,0.59245 -0.58594,0 -1.22396,-0.117188 -0.63151,-0.110677 -1.33464,-0.338543 v -1.236984 q 0.66406,0.345053 1.3086,0.520835 0.64453,0.169272 1.27605,0.169272 0.84635,0 1.30208,-0.28646 0.45574,-0.29297 0.45574,-0.820316 0,-0.488283 -0.33204,-0.748701 -0.32552,-0.260418 -1.4388,-0.501304 l -0.41667,-0.09766 q -1.11329,-0.234376 -1.60808,-0.716149 -0.4948,-0.488283 -0.4948,-1.334641 0,-1.02865 0.72917,-1.588548 0.72917,-0.559898 2.07032,-0.559898 0.66407,0 1.25001,0.09766 0.58594,0.09766 1.08073,0.29297 z"
         style=""
         id="path2281" />
    </g>
    <g
       aria-label="4/5"
       transform="matrix(0.26458333,0,0,0.26458333,2.3463633,259.76691)"
       style="font-style:normal;font-variant:normal;font-weight:normal;font-stretch:normal;font-size:13.33333302px;line-height:1.25;font-family:sans-serif;-inkscape-font-specification:'sans-serif, Normal';font-variant-ligatures:normal;font-variant-caps:normal;font-variant-numeric:normal;font-feature-settings:normal;text-align:start;letter-spacing:0px;word-spacing:0px;writing-mode:lr-tb;text-anchor:start;fill:#2e3436;fill-opacity:1;stroke:none"
       id="flowRoot2239">
      <path
         d="m 252.17969,60.166016 -3.32032,5.188802 h 3.32032 z m -0.34505,-1.145834 h 1.65364 v 6.334636 h 1.38672 v 1.093749 h -1.38672 v 2.291667 h -1.30859 v -2.291667 h -4.38802 v -1.269531 z"
         style=""
         id="path2266" />
      <path
         d="m 259.00911,59.020182 h 1.10677 l -3.38541,10.957031 h -1.10677 z"
         style=""
         id="path2268" />
      <path
         d="m 261.55469,59.020182 h 5.16276 v 1.106771 h -3.95834 v 2.382812 q 0.28646,-0.09766 0.57292,-0.143229 0.28646,-0.05208 0.57292,-0.05208 1.6276,0 2.57812,0.891927 0.95052,0.891927 0.95052,2.415365 0,1.56901 -0.97656,2.441406 -0.97656,0.865885 -2.75391,0.865885 -0.61197,0 -1.25,-0.104166 -0.63151,-0.104167 -1.30859,-0.3125 v -1.321615 q 0.58594,0.31901 1.21094,0.47526 0.625,0.15625 1.32161,0.15625 1.1263,0 1.78386,-0.592448 0.65755,-0.592447 0.65755,-1.608072 0,-1.015625 -0.65755,-1.608073 -0.65756,-0.592448 -1.78386,-0.592448 -0.52734,0 -1.05468,0.117187 -0.52084,0.117188 -1.06771,0.364584 z"
         style=""
         id="path2270" />
    </g>
    <g
       aria-label="1/5"
       transform="matrix(0.26458333,0,0,0.26458333,2.9020809,272.7954)"
       style="font-style:normal;font-variant:normal;font-weight:normal;font-stretch:normal;font-size:13.33333397px;line-height:1.25;font-family:sans-serif;-inkscape-font-specification:'sans-serif, Normal';font-variant-ligatures:normal;font-variant-caps:normal;font-variant-numeric:normal;font-feature-settings:normal;text-align:start;letter-spacing:0px;word-spacing:0px;writing-mode:lr-tb;text-anchor:start;fill:#2e3436;fill-opacity:1;stroke:none"
       id="flowRoot2255">
      <path
         d="m 248.79427,67.633464 h 2.14844 v -7.415365 l -2.33724,0.46875 v -1.197917 l 2.32422,-0.46875 h 1.3151 v 8.613282 h 2.14844 v 1.106771 h -5.59896 z"
         style=""
         id="path2259" />
      <path
         d="m 259.00912,59.020182 h 1.10677 l -3.38542,10.957032 h -1.10677 z"
         style=""
         id="path2261" />
      <path
         d="m 261.55469,59.020182 h 5.16276 v 1.106771 h -3.95833 v 2.382813 q 0.28645,-0.09766 0.57291,-0.143229 0.28646,-0.05208 0.57292,-0.05208 1.6276,0 2.57812,0.891928 0.95052,0.891927 0.95052,2.415364 0,1.569011 -0.97656,2.441407 -0.97656,0.865885 -2.7539,0.865885 -0.61198,0 -1.25,-0.104167 -0.63152,-0.104166 -1.3086,-0.3125 v -1.321614 q 0.58594,0.31901 1.21094,0.47526 0.625,0.15625 1.32161,0.15625 1.12631,0 1.78386,-0.592448 0.65755,-0.592448 0.65755,-1.608073 0,-1.015625 -0.65755,-1.608073 -0.65755,-0.592448 -1.78386,-0.592448 -0.52734,0 -1.05468,0.117188 -0.52084,0.117187 -1.06771,0.364583 z"
         style=""
         id="path2263" />
    </g>
    <g
       aria-label="F"
       transform="matrix(0.27874674,0,0,0.27874674,32.227904,254.60374)"
       style="font-style:normal;font-variant:normal;font-weight:normal;font-stretch:normal;font-size:24px;line-height:1.25;font-family:sans-serif;-inkscape-font-specification:'sans-serif, Normal';font-variant-ligatures:normal;font-variant-caps:normal;font-variant-numeric:normal;font-feature-settings:normal;text-align:start;letter-spacing:0px;word-spacing:0px;writing-mode:lr-tb;text-anchor:start;fill:#75507b;fill-opacity:1;stroke:#75507b"
       id="flowRoot2295">
      <path
         d="m -66.457031,22.216797 h 10.054687 v 1.992187 h -7.6875 v 5.15625 h 6.9375 v 1.992188 h -6.9375 v 8.355469 h -2.367187 z"
         style=""
         id="path165" />
    </g>
  </g>
</svg>
